<mxfile host="app.diagrams.net" agent="Mozilla/5.0 (Windows NT 10.0; Win64; x64) AppleWebKit/537.36 (KHTML, like Gecko) Chrome/135.0.0.0 Safari/537.36" version="26.2.13">
  <diagram name="Page-1" id="7pgPLvgr8eLPXYmPFbRt">
    <mxGraphModel dx="2330" dy="791" grid="1" gridSize="10" guides="1" tooltips="1" connect="1" arrows="1" fold="1" page="1" pageScale="1" pageWidth="827" pageHeight="1169" math="0" shadow="0">
      <root>
        <mxCell id="0" />
        <mxCell id="1" parent="0" />
        <mxCell id="ZSOK5SXuxezdU-UPXhvf-44" value="" style="group;rotation=-90;" vertex="1" connectable="0" parent="1">
          <mxGeometry x="320" y="110" width="180" height="1150" as="geometry" />
        </mxCell>
        <mxCell id="ZSOK5SXuxezdU-UPXhvf-1" value="INPUT IMAGE&lt;div&gt;(224&amp;nbsp;&lt;span style=&quot;background-color: transparent; color: light-dark(rgb(0, 0, 0), rgb(255, 255, 255));&quot;&gt;× 224&amp;nbsp;&lt;/span&gt;&lt;span style=&quot;background-color: transparent; color: light-dark(rgb(0, 0, 0), rgb(255, 255, 255));&quot;&gt;× 3)&lt;/span&gt;&lt;/div&gt;" style="rounded=0;whiteSpace=wrap;html=1;rotation=-90;fillColor=#fff2cc;strokeColor=#d6b656;" vertex="1" parent="ZSOK5SXuxezdU-UPXhvf-44">
          <mxGeometry x="-520" y="580" width="120" height="50" as="geometry" />
        </mxCell>
        <mxCell id="ZSOK5SXuxezdU-UPXhvf-2" value="Conv1&lt;div&gt;&lt;span style=&quot;background-color: transparent; color: light-dark(rgb(0, 0, 0), rgb(255, 255, 255));&quot;&gt;3×3, 2&lt;/span&gt;&lt;span style=&quot;background-color: transparent; color: light-dark(rgb(0, 0, 0), rgb(255, 255, 255));&quot;&gt;4 filters, s = 2&lt;/span&gt;&lt;/div&gt;&lt;div&gt;&lt;span style=&quot;background-color: transparent;&quot;&gt;BN + ReLU&lt;/span&gt;&lt;/div&gt;" style="rounded=0;whiteSpace=wrap;html=1;rotation=-90;fillColor=#dae8fc;strokeColor=#6c8ebf;" vertex="1" parent="ZSOK5SXuxezdU-UPXhvf-44">
          <mxGeometry x="-425" y="575" width="120" height="60" as="geometry" />
        </mxCell>
        <mxCell id="ZSOK5SXuxezdU-UPXhvf-3" value="MaxPool&lt;div&gt;3 × 3, s = 2&lt;/div&gt;" style="rounded=0;whiteSpace=wrap;html=1;rotation=-90;fillColor=#f8cecc;strokeColor=#b85450;" vertex="1" parent="ZSOK5SXuxezdU-UPXhvf-44">
          <mxGeometry x="-330" y="580" width="120" height="50" as="geometry" />
        </mxCell>
        <mxCell id="ZSOK5SXuxezdU-UPXhvf-26" value="Conv5&lt;div&gt;1 × 1, 1024 filters&lt;/div&gt;&lt;div&gt;&amp;nbsp;BN + ReLU&amp;nbsp;&lt;/div&gt;" style="rounded=0;whiteSpace=wrap;html=1;rotation=-90;fillColor=#dae8fc;strokeColor=#6c8ebf;" vertex="1" parent="ZSOK5SXuxezdU-UPXhvf-44">
          <mxGeometry x="315" y="571" width="120" height="60" as="geometry" />
        </mxCell>
        <mxCell id="ZSOK5SXuxezdU-UPXhvf-35" value="" style="edgeStyle=orthogonalEdgeStyle;rounded=0;orthogonalLoop=1;jettySize=auto;html=1;" edge="1" parent="ZSOK5SXuxezdU-UPXhvf-44" source="ZSOK5SXuxezdU-UPXhvf-29" target="ZSOK5SXuxezdU-UPXhvf-30">
          <mxGeometry relative="1" as="geometry" />
        </mxCell>
        <mxCell id="ZSOK5SXuxezdU-UPXhvf-29" value="Global Avg Pool&lt;div&gt;7 × 7&lt;/div&gt;" style="rounded=0;whiteSpace=wrap;html=1;rotation=-90;fillColor=#F8CECC;strokeColor=#b85450;" vertex="1" parent="ZSOK5SXuxezdU-UPXhvf-44">
          <mxGeometry x="410" y="576" width="120" height="50" as="geometry" />
        </mxCell>
        <mxCell id="ZSOK5SXuxezdU-UPXhvf-30" value="Softmax&amp;nbsp;" style="rounded=0;whiteSpace=wrap;html=1;rotation=-90;fillColor=#e1d5e7;strokeColor=#9673a6;" vertex="1" parent="ZSOK5SXuxezdU-UPXhvf-44">
          <mxGeometry x="490" y="576" width="120" height="50" as="geometry" />
        </mxCell>
        <mxCell id="ZSOK5SXuxezdU-UPXhvf-31" value="" style="group;fillColor=none;strokeColor=none;rotation=-90;" vertex="1" connectable="0" parent="ZSOK5SXuxezdU-UPXhvf-44">
          <mxGeometry x="147" y="523" width="126" height="130" as="geometry" />
        </mxCell>
        <mxCell id="ZSOK5SXuxezdU-UPXhvf-20" value="" style="whiteSpace=wrap;html=1;aspect=fixed;rotation=-90;fillColor=#d5e8d4;strokeColor=#82b366;" vertex="1" parent="ZSOK5SXuxezdU-UPXhvf-31">
          <mxGeometry x="-2" y="44" width="84" height="84" as="geometry" />
        </mxCell>
        <mxCell id="ZSOK5SXuxezdU-UPXhvf-21" value="" style="whiteSpace=wrap;html=1;aspect=fixed;rotation=-90;fillColor=#d5e8d4;strokeColor=#82b366;" vertex="1" parent="ZSOK5SXuxezdU-UPXhvf-31">
          <mxGeometry x="9" y="34" width="84" height="84" as="geometry" />
        </mxCell>
        <mxCell id="ZSOK5SXuxezdU-UPXhvf-22" value="" style="whiteSpace=wrap;html=1;aspect=fixed;rotation=-90;fillColor=#d5e8d4;strokeColor=#82b366;" vertex="1" parent="ZSOK5SXuxezdU-UPXhvf-31">
          <mxGeometry x="20" y="23" width="84" height="84" as="geometry" />
        </mxCell>
        <mxCell id="ZSOK5SXuxezdU-UPXhvf-23" value="" style="whiteSpace=wrap;html=1;aspect=fixed;rotation=-90;fillColor=#d5e8d4;strokeColor=#82b366;" vertex="1" parent="ZSOK5SXuxezdU-UPXhvf-31">
          <mxGeometry x="31" y="13" width="84" height="84" as="geometry" />
        </mxCell>
        <mxCell id="ZSOK5SXuxezdU-UPXhvf-24" value="Stage 2&lt;div&gt;Shuffle Units 4&lt;/div&gt;" style="whiteSpace=wrap;html=1;aspect=fixed;rotation=-90;fillColor=#d5e8d4;strokeColor=#82b366;" vertex="1" parent="ZSOK5SXuxezdU-UPXhvf-31">
          <mxGeometry x="41" y="2" width="84" height="84" as="geometry" />
        </mxCell>
        <mxCell id="ZSOK5SXuxezdU-UPXhvf-32" value="" style="group;rotation=-90;" vertex="1" connectable="0" parent="ZSOK5SXuxezdU-UPXhvf-44">
          <mxGeometry x="-55" y="485" width="170" height="170" as="geometry" />
        </mxCell>
        <mxCell id="ZSOK5SXuxezdU-UPXhvf-12" value="" style="whiteSpace=wrap;html=1;aspect=fixed;rotation=-90;fillColor=#d5e8d4;strokeColor=#82b366;" vertex="1" parent="ZSOK5SXuxezdU-UPXhvf-32">
          <mxGeometry y="88" width="81.9277108433735" height="81.9277108433735" as="geometry" />
        </mxCell>
        <mxCell id="ZSOK5SXuxezdU-UPXhvf-13" value="" style="whiteSpace=wrap;html=1;aspect=fixed;rotation=-90;fillColor=#d5e8d4;strokeColor=#82b366;" vertex="1" parent="ZSOK5SXuxezdU-UPXhvf-32">
          <mxGeometry x="11" y="77" width="81.9277108433735" height="81.9277108433735" as="geometry" />
        </mxCell>
        <mxCell id="ZSOK5SXuxezdU-UPXhvf-14" value="" style="whiteSpace=wrap;html=1;aspect=fixed;rotation=-90;fillColor=#d5e8d4;strokeColor=#82b366;" vertex="1" parent="ZSOK5SXuxezdU-UPXhvf-32">
          <mxGeometry x="23" y="65" width="81.9277108433735" height="81.9277108433735" as="geometry" />
        </mxCell>
        <mxCell id="ZSOK5SXuxezdU-UPXhvf-15" value="" style="whiteSpace=wrap;html=1;aspect=fixed;rotation=-90;fillColor=#d5e8d4;strokeColor=#82b366;" vertex="1" parent="ZSOK5SXuxezdU-UPXhvf-32">
          <mxGeometry x="34" y="54" width="81.9277108433735" height="81.9277108433735" as="geometry" />
        </mxCell>
        <mxCell id="ZSOK5SXuxezdU-UPXhvf-16" value="" style="whiteSpace=wrap;html=1;aspect=fixed;rotation=-90;fillColor=#d5e8d4;strokeColor=#82b366;" vertex="1" parent="ZSOK5SXuxezdU-UPXhvf-32">
          <mxGeometry x="45" y="43" width="81.9277108433735" height="81.9277108433735" as="geometry" />
        </mxCell>
        <mxCell id="ZSOK5SXuxezdU-UPXhvf-17" value="" style="whiteSpace=wrap;html=1;aspect=fixed;rotation=-90;fillColor=#d5e8d4;strokeColor=#82b366;" vertex="1" parent="ZSOK5SXuxezdU-UPXhvf-32">
          <mxGeometry x="57" y="31" width="81.9277108433735" height="81.9277108433735" as="geometry" />
        </mxCell>
        <mxCell id="ZSOK5SXuxezdU-UPXhvf-18" value="" style="whiteSpace=wrap;html=1;aspect=fixed;rotation=-90;fillColor=#d5e8d4;strokeColor=#82b366;" vertex="1" parent="ZSOK5SXuxezdU-UPXhvf-32">
          <mxGeometry x="68" y="20" width="81.9277108433735" height="81.9277108433735" as="geometry" />
        </mxCell>
        <mxCell id="ZSOK5SXuxezdU-UPXhvf-19" value="Stage 2&lt;div&gt;Shuffle Units 8&lt;/div&gt;" style="whiteSpace=wrap;html=1;aspect=fixed;rotation=-90;fillColor=#d5e8d4;strokeColor=#82b366;" vertex="1" parent="ZSOK5SXuxezdU-UPXhvf-32">
          <mxGeometry x="79" y="9" width="81.9277108433735" height="81.9277108433735" as="geometry" />
        </mxCell>
        <mxCell id="ZSOK5SXuxezdU-UPXhvf-40" value="" style="endArrow=classic;html=1;rounded=0;entryX=0.367;entryY=0.109;entryDx=0;entryDy=0;entryPerimeter=0;" edge="1" parent="ZSOK5SXuxezdU-UPXhvf-32" target="ZSOK5SXuxezdU-UPXhvf-21">
          <mxGeometry width="50" height="50" relative="1" as="geometry">
            <mxPoint x="130" y="125" as="sourcePoint" />
            <mxPoint x="190" y="125" as="targetPoint" />
          </mxGeometry>
        </mxCell>
        <mxCell id="ZSOK5SXuxezdU-UPXhvf-33" value="" style="group;fillColor=none;strokeColor=none;rotation=-90;" vertex="1" connectable="0" parent="ZSOK5SXuxezdU-UPXhvf-44">
          <mxGeometry x="-195" y="535" width="120" height="120" as="geometry" />
        </mxCell>
        <mxCell id="ZSOK5SXuxezdU-UPXhvf-5" value="" style="whiteSpace=wrap;html=1;aspect=fixed;rotation=-90;fillColor=#d5e8d4;strokeColor=#82b366;" vertex="1" parent="ZSOK5SXuxezdU-UPXhvf-33">
          <mxGeometry y="33" width="87.27272727272727" height="87.27272727272727" as="geometry" />
        </mxCell>
        <mxCell id="ZSOK5SXuxezdU-UPXhvf-6" value="" style="whiteSpace=wrap;html=1;aspect=fixed;rotation=-90;fillColor=#d5e8d4;strokeColor=#82b366;" vertex="1" parent="ZSOK5SXuxezdU-UPXhvf-33">
          <mxGeometry x="11" y="22" width="87.27272727272727" height="87.27272727272727" as="geometry" />
        </mxCell>
        <mxCell id="ZSOK5SXuxezdU-UPXhvf-7" value="" style="whiteSpace=wrap;html=1;aspect=fixed;rotation=-90;fillColor=#d5e8d4;strokeColor=#82b366;" vertex="1" parent="ZSOK5SXuxezdU-UPXhvf-33">
          <mxGeometry x="22" y="11" width="87.27272727272727" height="87.27272727272727" as="geometry" />
        </mxCell>
        <mxCell id="ZSOK5SXuxezdU-UPXhvf-8" value="Stage 2&lt;div&gt;Shuffle Units&amp;nbsp;4&lt;/div&gt;" style="whiteSpace=wrap;html=1;aspect=fixed;rotation=-90;fillColor=#d5e8d4;strokeColor=#82b366;" vertex="1" parent="ZSOK5SXuxezdU-UPXhvf-33">
          <mxGeometry x="33" width="87.27272727272727" height="87.27272727272727" as="geometry" />
        </mxCell>
        <mxCell id="ZSOK5SXuxezdU-UPXhvf-34" value="OUTPUT" style="rounded=0;whiteSpace=wrap;html=1;fillColor=#fff2cc;strokeColor=#d6b656;rotation=-90;" vertex="1" parent="ZSOK5SXuxezdU-UPXhvf-44">
          <mxGeometry x="580" y="576" width="120" height="50" as="geometry" />
        </mxCell>
        <mxCell id="ZSOK5SXuxezdU-UPXhvf-36" value="" style="endArrow=classic;html=1;rounded=0;entryX=0.5;entryY=0;entryDx=0;entryDy=0;exitX=0.5;exitY=1;exitDx=0;exitDy=0;" edge="1" parent="ZSOK5SXuxezdU-UPXhvf-44" source="ZSOK5SXuxezdU-UPXhvf-1" target="ZSOK5SXuxezdU-UPXhvf-2">
          <mxGeometry width="50" height="50" relative="1" as="geometry">
            <mxPoint x="-405" y="626" as="sourcePoint" />
            <mxPoint x="-455" y="576" as="targetPoint" />
          </mxGeometry>
        </mxCell>
        <mxCell id="ZSOK5SXuxezdU-UPXhvf-37" value="" style="endArrow=classic;html=1;rounded=0;entryX=0.5;entryY=0;entryDx=0;entryDy=0;exitX=0.5;exitY=1;exitDx=0;exitDy=0;" edge="1" parent="ZSOK5SXuxezdU-UPXhvf-44">
          <mxGeometry width="50" height="50" relative="1" as="geometry">
            <mxPoint x="-335" y="605" as="sourcePoint" />
            <mxPoint x="-295" y="605" as="targetPoint" />
          </mxGeometry>
        </mxCell>
        <mxCell id="ZSOK5SXuxezdU-UPXhvf-38" value="" style="endArrow=classic;html=1;rounded=0;exitX=0.5;exitY=1;exitDx=0;exitDy=0;" edge="1" parent="ZSOK5SXuxezdU-UPXhvf-44" source="ZSOK5SXuxezdU-UPXhvf-3">
          <mxGeometry width="50" height="50" relative="1" as="geometry">
            <mxPoint x="-235" y="605" as="sourcePoint" />
            <mxPoint x="-195" y="605" as="targetPoint" />
          </mxGeometry>
        </mxCell>
        <mxCell id="ZSOK5SXuxezdU-UPXhvf-39" value="" style="endArrow=classic;html=1;rounded=0;entryX=0.14;entryY=0.039;entryDx=0;entryDy=0;entryPerimeter=0;exitX=0.383;exitY=1.004;exitDx=0;exitDy=0;exitPerimeter=0;" edge="1" parent="ZSOK5SXuxezdU-UPXhvf-44" source="ZSOK5SXuxezdU-UPXhvf-8" target="ZSOK5SXuxezdU-UPXhvf-17">
          <mxGeometry width="50" height="50" relative="1" as="geometry">
            <mxPoint x="-65" y="588" as="sourcePoint" />
            <mxPoint x="-45" y="588" as="targetPoint" />
          </mxGeometry>
        </mxCell>
        <mxCell id="ZSOK5SXuxezdU-UPXhvf-41" value="" style="endArrow=classic;html=1;rounded=0;" edge="1" parent="ZSOK5SXuxezdU-UPXhvf-44">
          <mxGeometry width="50" height="50" relative="1" as="geometry">
            <mxPoint x="275" y="605" as="sourcePoint" />
            <mxPoint x="345" y="605" as="targetPoint" />
          </mxGeometry>
        </mxCell>
        <mxCell id="ZSOK5SXuxezdU-UPXhvf-42" value="" style="endArrow=classic;html=1;rounded=0;entryX=0.5;entryY=0;entryDx=0;entryDy=0;exitX=0.5;exitY=1;exitDx=0;exitDy=0;" edge="1" parent="ZSOK5SXuxezdU-UPXhvf-44">
          <mxGeometry width="50" height="50" relative="1" as="geometry">
            <mxPoint x="405" y="605" as="sourcePoint" />
            <mxPoint x="445" y="605" as="targetPoint" />
          </mxGeometry>
        </mxCell>
        <mxCell id="ZSOK5SXuxezdU-UPXhvf-43" value="" style="endArrow=classic;html=1;rounded=0;entryX=0.5;entryY=0;entryDx=0;entryDy=0;" edge="1" parent="ZSOK5SXuxezdU-UPXhvf-44">
          <mxGeometry width="50" height="50" relative="1" as="geometry">
            <mxPoint x="575" y="601" as="sourcePoint" />
            <mxPoint x="615" y="601" as="targetPoint" />
          </mxGeometry>
        </mxCell>
      </root>
    </mxGraphModel>
  </diagram>
</mxfile>
